# xmcd
#
# Track frame offsets: 
#        150
#        13118
#        28901
#        39271
#        50623
#        68563
#        82005
#        89540
#        106614
#        120215
#        139325
#        149803
#        166489
#        179077
#        191996
#        206024
#        220116
#        233196
#        243151
#        255288
#        265830
#
# Disc length: 3709 seconds
#
# Revision: 9
# Processed by: cddbd v1.5.2PL0 Copyright (c) Steve Scherf et al.
# Submitted via: ExactAudioCopyFreeDBPlugin 1.0
#
DISCID=310e7b15
DTITLE=Waylon Jennings - Wanted! The Outlaws
DYEAR=1995
DGENRE=Country
TTITLE0=My Heroes Have Always Been Cowboys - Waylon Jennings
TTITLE1=Honky Tonk Heroes (Like Me) - Waylon Jennings
TTITLE2=I'm Looking For Blue Eyes - Jessi Colter
TTITLE3=You Mean To Say - Jessi Colter
TTITLE4=Suspicious Minds - Waylon Jennings and Jessi Colter
TTITLE5=A Good Hearted Woman - Waylon Jennings and Willie Nelson
TTITLE6=Heaven And Hell - Waylon Jennings and Willie Nelson
TTITLE7=Me And Paul - Willie Nelson
TTITLE8=Yesterday's Wine - Willie Nelson
TTITLE9=T For Texas - Tompal Glaser and Band
TTITLE10=Put Another Log On The Fire - Tompal Glaser and Band
TTITLE11=Slow Movin' Outlaws - Waylon Jennings
TTITLE12=(I'm A) Ramblin' Man - Waylon Jennings
TTITLE13=If She's Where You Like Livin' (You Won't Feel At Home With M
TTITLE13=e) - (with Jessi Colter)
TTITLE14=It's Not Easy - Jessi Colter
TTITLE15=Why You Been Gone So Long - Jessi Colter
TTITLE16=Under Your Spell Again - Waylon Jennings and Jessi Colter
TTITLE17=I Ain't The One - Waylon Jennings and Jessi Colter
TTITLE18=You Left A Long, Long Time Ago - Willie Nelson
TTITLE19=Healing Hands Of Time - Willie Nelson
TTITLE20=Nowhere Road - Waylon Jennings and Willie Nelson
EXTD=YEAR: 1995
EXTT0=
EXTT1=
EXTT2=
EXTT3=
EXTT4=
EXTT5=
EXTT6=
EXTT7=
EXTT8=
EXTT9=
EXTT10=
EXTT11=
EXTT12=
EXTT13=
EXTT14=
EXTT15=
EXTT16=
EXTT17=
EXTT18=
EXTT19=
EXTT20=
PLAYORDER=
